<svg xmlns="http://www.w3.org/2000/svg" viewBox="0 0 84.81 127.51"><defs><style>.cls-1{fill:#3d58a6;}</style></defs><title>phone</title><g id="Layer_2" data-name="Layer 2"><g id="Layer_1-2" data-name="Layer 1"><path class="cls-1" d="M84.11,82.52a2,2,0,0,0-2.79.23L67.63,98.81l-8.75-6.93A2,2,0,1,0,56.42,95l10.25,8.12a2,2,0,0,0,2.74-.27L84.34,85.29A2,2,0,0,0,84.11,82.52ZM70.24,115.7a2,2,0,0,0-2,2,5.93,5.93,0,0,1-5.93,5.91H9.88A5.93,5.93,0,0,1,4,117.67V9.84A5.93,5.93,0,0,1,9.88,3.94H62.34a5.93,5.93,0,0,1,5.93,5.91V70.1a2,2,0,0,0,4,0V36.49a3.29,3.29,0,0,0,2.64-3.22V24.66a3.29,3.29,0,0,0-2.64-3.22V9.84A9.87,9.87,0,0,0,62.34,0H9.88A9.87,9.87,0,0,0,0,9.84V117.67a9.87,9.87,0,0,0,9.88,9.84H62.34a9.89,9.89,0,0,0,9.8-8.57,1.94,1.94,0,0,0,.08-.56v-.71A2,2,0,0,0,70.24,115.7ZM46,10a2,2,0,1,0,0-3.94H26.23a2,2,0,1,0,0,3.94ZM30.62,116.77a5.5,5.5,0,1,0,5.5-5.47A5.49,5.49,0,0,0,30.62,116.77Zm7,0a1.54,1.54,0,1,1-1.54-1.53A1.54,1.54,0,0,1,37.65,116.77ZM59.73,71.94a2.18,2.18,0,0,0,2.18-2.17V25.71c0-3.67-3.54-6.88-7.57-6.88H18.6A7.56,7.56,0,0,0,11,26.36V99.84a7.56,7.56,0,0,0,7.57,7.54H49.79a2.17,2.17,0,1,0,0-4.34H18.6a3.2,3.2,0,0,1-3.21-3.19V26.36a3.2,3.2,0,0,1,3.21-3.19H54.35a3.17,3.17,0,0,1,3.21,2.54V69.77A2.17,2.17,0,0,0,59.73,71.94Z"/></g></g></svg>